PathFileType	4	(X/Y/Z)	D:\Share\Shared_Data\Ergonomics\Sit To Stand Pertubation\S1\Perturbed_NoHarness.trc
DataRate	CameraRate	NumFrames	NumMarkers	Units	OrigDataRate	OrigDataStartFrame	OrigNumFrames	
100	100	11	18	m	100	8626	221
Frame#	Time	L_ASIS			R_ASIS			R_Pelvis			V_Sacral			L_Pelvis			Clavical			R_Acromium			L_Acromium			Sternum			Torso			R_Thigh_Med			R_Thigh_Lat			R_Thigh			R_Shank_Med			R_Shank_Lat			R_Shank			R_Heel			R_Toe			
		X1	Y1	Z1	X2	Y2	Z2	X3	Y3	Z3	X4	Y4	Z4	X5	Y5	Z5	X6	Y6	Z6	X7	Y7	Z7	X8	Y8	Z8	X9	Y9	Z9	X10	Y10	Z10	X11	Y11	Z11	X12	Y12	Z12	X13	Y13	Z13	X14	Y14	Z14	X15	Y15	Z15	X16	Y16	Z16	X17	Y17	Z17	X18	Y18	Z18	

8626	86.25	0.47931543	0.90489075	-0.10618326	0.4594201	0.89814203	0.092219749	0.3820679	0.90751038	0.12622979	0.29088309	0.89931494	-0.017957436	0.38843021	0.90601056	-0.16493082	0.43465271	1.2528358	-0.011313449	0.36829425	1.3232618	0.13790558	0.32088824	1.2730609	-0.20714838	0.42058908	1.2660999	0.090821121	0.42975845	1.2581948	-0.070849205	0.34071991	0.42022403	0.059967964	0.36257953	0.44380286	0.17468057	0.45261923	0.60275159	0.11055663	0.33943542	0.10094688	0.099919739	0.31653815	0.10061156	0.18084543	0.3308175	0.31223505	0.1964689	0.2714212	0.033074387	0.12434911	0.47764832	0.045169857	0.14170126
8627	86.26	0.4806395	0.90480426	-0.10653963	0.46053879	0.89810046	0.091900818	0.38434265	0.90670502	0.12611564	0.29200784	0.89927777	-0.018053289	0.38889557	0.90593866	-0.16507764	0.43492752	1.2526707	-0.011687556	0.36864554	1.323168	0.13752058	0.32129639	1.2727878	-0.20760312	0.42097485	1.2660243	0.090406837	0.43006186	1.2580054	-0.071263634	0.34110321	0.42024637	0.059914127	0.36293802	0.44382178	0.17461977	0.45334317	0.60257483	0.11051884	0.33949252	0.10097517	0.099903549	0.31655023	0.10067905	0.18084694	0.33102423	0.31229678	0.19641347	0.27143021	0.033091103	0.12433831	0.47764883	0.045168095	0.14170645
8628	86.27	0.48193216	0.90472223	-0.10684264	0.46165121	0.89804578	0.091592659	0.38690573	0.9056922	0.12606774	0.29309863	0.89924426	-0.018147844	0.38935941	0.9058764	-0.16515651	0.43519431	1.2525088	-0.012054261	0.36899387	1.3230613	0.13714861	0.32170282	1.2725392	-0.20805196	0.42135364	1.2659407	0.089998169	0.43035587	1.2578214	-0.071670731	0.34147885	0.4202663	0.059860676	0.36327939	0.4438428	0.1745598	0.45403671	0.60240417	0.11048653	0.33955286	0.10100411	0.099887306	0.31655984	0.10074606	0.18084694	0.33122043	0.31235931	0.19635843	0.27143933	0.033108608	0.12432716	0.47765002	0.045166107	0.1417114
8629	86.28	0.4831774	0.90464136	-0.10709577	0.46275903	0.89797589	0.091301003	0.38976202	0.90446954	0.12608506	0.29415497	0.89921448	-0.018240585	0.3898363	0.90581958	-0.16518304	0.43545575	1.2523507	-0.012412153	0.36933963	1.3229431	0.1367903	0.32210855	1.2723137	-0.20849316	0.42172589	1.2658497	0.089597519	0.43064185	1.2576434	-0.072068108	0.34184958	0.42028375	0.059807423	0.36360822	0.44386481	0.17450113	0.45470251	0.60224066	0.11045905	0.33961618	0.10103309	0.099870689	0.31656863	0.10081232	0.18084526	0.33141	0.31242184	0.19630429	0.2714487	0.033127064	0.12431564	0.47765222	0.045163517	0.14171594
8630	86.29	0.48435956	0.90455804	-0.10730514	0.46386295	0.89788977	0.091029968	0.3928967	0.90304736	0.12616298	0.2951763	0.89918878	-0.018331039	0.39033878	0.90576379	-0.16517749	0.43571497	1.252196	-0.012759804	0.3696835	1.3228156	0.13644637	0.32251559	1.2721101	-0.20892485	0.42209235	1.2657524	0.089207489	0.43092157	1.2574713	-0.072452995	0.34221686	0.42029898	0.059754181	0.36392847	0.4438869	0.17444435	0.45534317	0.60208484	0.11043511	0.33968198	0.1010616	0.099853561	0.31657794	0.10087745	0.18084189	0.33159622	0.31248364	0.19625154	0.27145828	0.033146542	0.12430382	0.47765564	0.045160038	0.14172
8631	86.3	0.48546469	0.90446893	-0.10747851	0.46496252	0.89778809	0.090782402	0.39627402	0.90144983	0.12629333	0.29616205	0.89916724	-0.01841893	0.39087695	0.90570416	-0.16516248	0.43597559	1.2520435	-0.013095938	0.37002615	1.3226802	0.13611755	0.32292664	1.271927	-0.20934506	0.4224538	1.2656499	0.088830879	0.43119736	1.2573058	-0.072822433	0.34258118	0.42031223	0.059700745	0.36424365	0.44390781	0.1743903	0.45596063	0.60193677	0.11041309	0.33974954	0.1010892	0.099835922	0.31658884	0.1009411	0.18083704	0.33178177	0.31254388	0.19620049	0.2714679	0.033167034	0.12429182	0.4776604	0.04515551	0.1417234
8632	86.31	0.48648169	0.90437109	-0.10762424	0.46605518	0.89767316	0.090560036	0.39983807	0.89971411	0.12646471	0.29711185	0.89915021	-0.018504299	0.39145859	0.90563605	-0.16516035	0.43624149	1.2518907	-0.013419596	0.37036832	1.3225387	0.13580452	0.32334448	1.2717631	-0.20975175	0.42281119	1.2655433	0.08847049	0.43147195	1.2571464	-0.073173515	0.34294247	0.42032388	0.059646858	0.36455649	0.44392645	0.17434012	0.45655661	0.60179669	0.1103914	0.33981796	0.10111558	0.099817909	0.3166022	0.10100296	0.18083087	0.33196832	0.31260199	0.19615128	0.2714776	0.033188461	0.12427975	0.47766635	0.045149876	0.14172614
8633	86.32	0.48740323	0.90426215	-0.10775058	0.46713657	0.89754877	0.090363762	0.40351599	0.89788806	0.12666316	0.2980256	0.899138	-0.018587566	0.39208893	0.90555597	-0.16519086	0.43651691	1.251735	-0.013730258	0.37071066	1.3223934	0.13550793	0.32377179	1.2716173	-0.21014278	0.42316556	1.2654337	0.088128922	0.43174835	1.2569934	-0.073503517	0.34330008	0.42033447	0.059592167	0.36486877	0.44394165	0.17429515	0.45713226	0.60166425	0.11036854	0.33988644	0.10114052	0.099799683	0.31661829	0.1010628	0.18082364	0.33215659	0.31265759	0.1961037	0.27148724	0.033210701	0.12426772	0.47767337	0.045143154	0.14172816
8634	86.33	0.48822614	0.90414099	-0.10786488	0.46820016	0.89742029	0.090193832	0.4072233	0.89602698	0.12687334	0.29890356	0.89913074	-0.018669552	0.39277048	0.90546069	-0.16526884	0.43680591	1.2515719	-0.014027928	0.37105374	1.3222455	0.13522827	0.32421094	1.2714874	-0.21051608	0.42351782	1.2653217	0.08780854	0.43202966	1.2568469	-0.073810097	0.3436532	0.42034436	0.059536217	0.36518143	0.44395233	0.17425702	0.45768826	0.60153931	0.11034347	0.33995428	0.10116394	0.099781464	0.31663727	0.10112045	0.18081552	0.33234644	0.31271054	0.19605727	0.27149673	0.033233585	0.12425578	0.47768134	0.045135433	0.14172948
8635	86.34	0.48895163	0.90400763	-0.10797338	0.46923819	0.8972934	0.090049759	0.41087079	0.89418921	0.12707974	0.29974606	0.8991286	-0.018751404	0.39350336	0.90534875	-0.16540303	0.43711249	1.2513976	-0.014313152	0.37139795	1.3220963	0.13496591	0.32466373	1.2713719	-0.21086972	0.4238689	1.2652084	0.087511261	0.4323187	1.2567064	-0.074091446	0.34400134	0.42035385	0.05947847	0.36549442	0.44395734	0.1742274	0.45822507	0.60142145	0.11031564	0.34002109	0.10118583	0.09976339	0.31665872	0.10117591	0.18080661	0.33253696	0.31276086	0.19601117	0.27150616	0.033256943	0.12424397	0.47768997	0.045126862	0.1417301
8636	86.35	0.48958484	0.90386298	-0.10808091	0.4702417	0.89717389	0.089930428	0.41437186	0.89243115	0.12726794	0.30055396	0.89913153	-0.018834536	0.3942854	0.90521985	-0.16559555	0.43744019	1.2512078	-0.01458697	0.37174326	1.3219478	0.13472096	0.3251311	1.2712684	-0.21120197	0.42421939	1.2650941	0.087238525	0.43261804	1.256572	-0.07434639	0.34434418	0.42036325	0.059418278	0.36580722	0.44395557	0.17420793	0.45874258	0.60131018	0.11028498	0.34008649	0.10120625	0.099745567	0.31668207	0.10122928	0.18079681	0.3327265	0.31280862	0.19596442	0.27151541	0.033280598	0.12423227	0.47769913	0.045117607	0.14173012
